<svg xmlns="http://www.w3.org/2000/svg" width="1200" height="650" viewBox="0 0 1200 650">
  <defs><marker id="arrow" markerWidth="12" markerHeight="12" refX="10" refY="6" orient="auto"><path d="M0,0 L12,6 L0,12 Z" fill="#49657a"/></marker></defs>
  <rect width="1200" height="650" rx="28" fill="#f6f9fc"/>
  <text x="600" y="55" text-anchor="middle" font-family="Microsoft YaHei, sans-serif" font-size="30" font-weight="700" fill="#17324d">Padding 对齐长度，Attention Mask 标记有效位置</text>

  <text x="190" y="118" text-anchor="middle" font-family="Microsoft YaHei, sans-serif" font-size="22" font-weight="700" fill="#17324d">原始 ID 序列</text>
  <g font-family="Arial, sans-serif" font-size="22" font-weight="700" text-anchor="middle" fill="#17324d">
    <text x="50" y="190" font-family="Microsoft YaHei, sans-serif" fill="#647b8d">A</text>
    <rect x="90" y="155" width="58" height="55" rx="10" fill="#d9f0ff"/><text x="119" y="191">2</text>
    <rect x="160" y="155" width="58" height="55" rx="10" fill="#d9f0ff"/><text x="189" y="191">3</text>
    <rect x="230" y="155" width="58" height="55" rx="10" fill="#d9f0ff"/><text x="259" y="191">5</text>
    <text x="50" y="280" font-family="Microsoft YaHei, sans-serif" fill="#647b8d">B</text>
    <rect x="90" y="245" width="58" height="55" rx="10" fill="#e5f6ea"/><text x="119" y="281">2</text>
    <rect x="160" y="245" width="58" height="55" rx="10" fill="#e5f6ea"/><text x="189" y="281">3</text>
    <rect x="230" y="245" width="58" height="55" rx="10" fill="#e5f6ea"/><text x="259" y="281">4</text>
    <rect x="300" y="245" width="58" height="55" rx="10" fill="#e5f6ea"/><text x="329" y="281">5</text>
    <rect x="370" y="245" width="58" height="55" rx="10" fill="#e5f6ea"/><text x="399" y="281">6</text>
  </g>

  <line x1="460" y1="225" x2="540" y2="225" stroke="#49657a" stroke-width="5" marker-end="url(#arrow)"/>
  <text x="500" y="195" text-anchor="middle" font-family="Microsoft YaHei, sans-serif" font-size="18" fill="#647b8d">补齐</text>

  <text x="770" y="118" text-anchor="middle" font-family="Microsoft YaHei, sans-serif" font-size="22" font-weight="700" fill="#17324d">统一为长度 5</text>
  <g font-family="Arial, sans-serif" font-size="22" font-weight="700" text-anchor="middle" fill="#17324d">
    <text x="555" y="190" font-family="Microsoft YaHei, sans-serif" fill="#647b8d">A</text>
    <rect x="595" y="155" width="58" height="55" rx="10" fill="#d9f0ff"/><text x="624" y="191">2</text>
    <rect x="665" y="155" width="58" height="55" rx="10" fill="#d9f0ff"/><text x="694" y="191">3</text>
    <rect x="735" y="155" width="58" height="55" rx="10" fill="#d9f0ff"/><text x="764" y="191">5</text>
    <rect x="805" y="155" width="58" height="55" rx="10" fill="#e1e7eb"/><text x="834" y="191" fill="#7b8b96">0</text>
    <rect x="875" y="155" width="58" height="55" rx="10" fill="#e1e7eb"/><text x="904" y="191" fill="#7b8b96">0</text>
    <text x="555" y="280" font-family="Microsoft YaHei, sans-serif" fill="#647b8d">B</text>
    <rect x="595" y="245" width="58" height="55" rx="10" fill="#e5f6ea"/><text x="624" y="281">2</text>
    <rect x="665" y="245" width="58" height="55" rx="10" fill="#e5f6ea"/><text x="694" y="281">3</text>
    <rect x="735" y="245" width="58" height="55" rx="10" fill="#e5f6ea"/><text x="764" y="281">4</text>
    <rect x="805" y="245" width="58" height="55" rx="10" fill="#e5f6ea"/><text x="834" y="281">5</text>
    <rect x="875" y="245" width="58" height="55" rx="10" fill="#e5f6ea"/><text x="904" y="281">6</text>
  </g>
  <text x="1035" y="172" font-family="Microsoft YaHei, sans-serif" font-size="19" fill="#7b8b96">灰色 = [PAD]</text>

  <line x1="770" y1="325" x2="770" y2="380" stroke="#49657a" stroke-width="5" marker-end="url(#arrow)"/>
  <text x="845" y="358" font-family="Microsoft YaHei, sans-serif" font-size="18" fill="#647b8d">生成 Mask</text>

  <rect x="315" y="405" width="570" height="175" rx="22" fill="#ffffff" stroke="#b7cad8" stroke-width="3"/>
  <text x="600" y="445" text-anchor="middle" font-family="Microsoft YaHei, sans-serif" font-size="22" font-weight="700" fill="#17324d">Attention Mask</text>
  <g font-family="Arial, sans-serif" font-size="22" font-weight="700" text-anchor="middle">
    <text x="350" y="500" font-family="Microsoft YaHei, sans-serif" fill="#647b8d">A</text>
    <rect x="390" y="468" width="58" height="48" rx="9" fill="#64ae7b"/><text x="419" y="500" fill="#ffffff">1</text>
    <rect x="460" y="468" width="58" height="48" rx="9" fill="#64ae7b"/><text x="489" y="500" fill="#ffffff">1</text>
    <rect x="530" y="468" width="58" height="48" rx="9" fill="#64ae7b"/><text x="559" y="500" fill="#ffffff">1</text>
    <rect x="600" y="468" width="58" height="48" rx="9" fill="#aebbc4"/><text x="629" y="500" fill="#ffffff">0</text>
    <rect x="670" y="468" width="58" height="48" rx="9" fill="#aebbc4"/><text x="699" y="500" fill="#ffffff">0</text>
    <text x="350" y="557" font-family="Microsoft YaHei, sans-serif" fill="#647b8d">B</text>
    <rect x="390" y="525" width="58" height="48" rx="9" fill="#64ae7b"/><text x="419" y="557" fill="#ffffff">1</text>
    <rect x="460" y="525" width="58" height="48" rx="9" fill="#64ae7b"/><text x="489" y="557" fill="#ffffff">1</text>
    <rect x="530" y="525" width="58" height="48" rx="9" fill="#64ae7b"/><text x="559" y="557" fill="#ffffff">1</text>
    <rect x="600" y="525" width="58" height="48" rx="9" fill="#64ae7b"/><text x="629" y="557" fill="#ffffff">1</text>
    <rect x="670" y="525" width="58" height="48" rx="9" fill="#64ae7b"/><text x="699" y="557" fill="#ffffff">1</text>
  </g>
  <text x="790" y="495" font-family="Microsoft YaHei, sans-serif" font-size="18" fill="#549569">1：有效位置</text>
  <text x="790" y="536" font-family="Microsoft YaHei, sans-serif" font-size="18" fill="#7b8b96">0：忽略位置</text>
</svg>
